<mxfile host="app.diagrams.net" agent="Mozilla/5.0 (Windows NT 10.0; Win64; x64) AppleWebKit/537.36 (KHTML, like Gecko) Chrome/129.0.0.0 Safari/537.36" version="24.7.17">
  <diagram id="F1PXj9JLkyc28KyTnMmw" name="Страница — 1">
    <mxGraphModel dx="1932" dy="1755" grid="1" gridSize="10" guides="1" tooltips="1" connect="1" arrows="1" fold="1" page="1" pageScale="1" pageWidth="827" pageHeight="1169" math="0" shadow="0">
      <root>
        <mxCell id="0" />
        <mxCell id="1" parent="0" />
        <mxCell id="Gx8ov3ut-1WUGGUcvixL-1" value="Вход в почту&amp;nbsp;" style="ellipse;whiteSpace=wrap;html=1;" parent="1" vertex="1">
          <mxGeometry x="190" y="30" width="140" height="70" as="geometry" />
        </mxCell>
        <mxCell id="Gx8ov3ut-1WUGGUcvixL-2" value="Пользователь" style="shape=umlActor;verticalLabelPosition=bottom;verticalAlign=top;html=1;outlineConnect=0;" parent="1" vertex="1">
          <mxGeometry x="80" y="310" width="30" height="60" as="geometry" />
        </mxCell>
        <mxCell id="Gx8ov3ut-1WUGGUcvixL-5" value="" style="endArrow=none;html=1;rounded=0;exitX=0;exitY=0.5;exitDx=0;exitDy=0;" parent="1" source="Gx8ov3ut-1WUGGUcvixL-1" target="Gx8ov3ut-1WUGGUcvixL-2" edge="1">
          <mxGeometry width="50" height="50" relative="1" as="geometry">
            <mxPoint x="390" y="250" as="sourcePoint" />
            <mxPoint x="440" y="200" as="targetPoint" />
          </mxGeometry>
        </mxCell>
        <mxCell id="Gx8ov3ut-1WUGGUcvixL-6" value="" style="endArrow=none;html=1;rounded=0;entryX=0;entryY=0.5;entryDx=0;entryDy=0;" parent="1" source="Gx8ov3ut-1WUGGUcvixL-2" target="35qopiL8yK1qIyyW-kb4-4" edge="1">
          <mxGeometry width="50" height="50" relative="1" as="geometry">
            <mxPoint x="400" y="110" as="sourcePoint" />
            <mxPoint x="340" y="245" as="targetPoint" />
          </mxGeometry>
        </mxCell>
        <mxCell id="35qopiL8yK1qIyyW-kb4-3" value="Получить письмо" style="ellipse;whiteSpace=wrap;html=1;" vertex="1" parent="1">
          <mxGeometry x="190" y="580" width="140" height="70" as="geometry" />
        </mxCell>
        <mxCell id="35qopiL8yK1qIyyW-kb4-4" value="Отправить письмо" style="ellipse;whiteSpace=wrap;html=1;" vertex="1" parent="1">
          <mxGeometry x="370" y="400" width="140" height="70" as="geometry" />
        </mxCell>
        <mxCell id="35qopiL8yK1qIyyW-kb4-7" value="Фильтрация спама&amp;nbsp;" style="ellipse;whiteSpace=wrap;html=1;" vertex="1" parent="1">
          <mxGeometry x="-180" y="170" width="140" height="70" as="geometry" />
        </mxCell>
        <mxCell id="35qopiL8yK1qIyyW-kb4-8" value="Создание папок&amp;nbsp;" style="ellipse;whiteSpace=wrap;html=1;" vertex="1" parent="1">
          <mxGeometry x="360" y="200" width="140" height="70" as="geometry" />
        </mxCell>
        <mxCell id="35qopiL8yK1qIyyW-kb4-9" value="Управление контактами" style="ellipse;whiteSpace=wrap;html=1;" vertex="1" parent="1">
          <mxGeometry x="-190" y="450" width="140" height="70" as="geometry" />
        </mxCell>
        <mxCell id="35qopiL8yK1qIyyW-kb4-10" value="Зарегистрироваться" style="ellipse;whiteSpace=wrap;html=1;" vertex="1" parent="1">
          <mxGeometry x="344" y="110" width="140" height="70" as="geometry" />
        </mxCell>
        <mxCell id="35qopiL8yK1qIyyW-kb4-11" value="Войти&amp;nbsp;" style="ellipse;whiteSpace=wrap;html=1;" vertex="1" parent="1">
          <mxGeometry x="180" y="120" width="140" height="70" as="geometry" />
        </mxCell>
        <mxCell id="35qopiL8yK1qIyyW-kb4-13" value="" style="html=1;verticalAlign=bottom;endArrow=block;curved=0;rounded=0;exitX=0.5;exitY=0;exitDx=0;exitDy=0;entryX=0.452;entryY=0.95;entryDx=0;entryDy=0;entryPerimeter=0;" edge="1" parent="1" source="35qopiL8yK1qIyyW-kb4-11" target="Gx8ov3ut-1WUGGUcvixL-1">
          <mxGeometry x="1" y="-296" width="80" relative="1" as="geometry">
            <mxPoint x="380" y="240" as="sourcePoint" />
            <mxPoint x="400" y="120" as="targetPoint" />
            <mxPoint x="79" y="-209" as="offset" />
          </mxGeometry>
        </mxCell>
        <mxCell id="35qopiL8yK1qIyyW-kb4-19" value="" style="html=1;verticalAlign=bottom;endArrow=block;curved=0;rounded=0;entryX=1;entryY=0.5;entryDx=0;entryDy=0;exitX=0.5;exitY=0;exitDx=0;exitDy=0;" edge="1" parent="1" source="35qopiL8yK1qIyyW-kb4-10" target="Gx8ov3ut-1WUGGUcvixL-1">
          <mxGeometry width="80" relative="1" as="geometry">
            <mxPoint x="390" y="280" as="sourcePoint" />
            <mxPoint x="470" y="280" as="targetPoint" />
          </mxGeometry>
        </mxCell>
        <mxCell id="35qopiL8yK1qIyyW-kb4-21" value="" style="endArrow=none;html=1;rounded=0;entryX=0;entryY=0.5;entryDx=0;entryDy=0;" edge="1" parent="1" source="Gx8ov3ut-1WUGGUcvixL-2" target="35qopiL8yK1qIyyW-kb4-8">
          <mxGeometry width="50" height="50" relative="1" as="geometry">
            <mxPoint x="400" y="410" as="sourcePoint" />
            <mxPoint x="450" y="360" as="targetPoint" />
          </mxGeometry>
        </mxCell>
        <mxCell id="35qopiL8yK1qIyyW-kb4-27" value="Именовать папку" style="ellipse;whiteSpace=wrap;html=1;" vertex="1" parent="1">
          <mxGeometry x="274" y="300" width="140" height="70" as="geometry" />
        </mxCell>
        <mxCell id="35qopiL8yK1qIyyW-kb4-28" value="&quot;include&quot;" style="endArrow=open;endSize=12;dashed=1;html=1;rounded=0;exitX=0;exitY=1;exitDx=0;exitDy=0;entryX=0.5;entryY=0;entryDx=0;entryDy=0;" edge="1" parent="1" source="35qopiL8yK1qIyyW-kb4-8" target="35qopiL8yK1qIyyW-kb4-27">
          <mxGeometry width="160" relative="1" as="geometry">
            <mxPoint x="330" y="220" as="sourcePoint" />
            <mxPoint x="490" y="220" as="targetPoint" />
          </mxGeometry>
        </mxCell>
        <mxCell id="35qopiL8yK1qIyyW-kb4-29" value="Выбрать где сохранить" style="ellipse;whiteSpace=wrap;html=1;" vertex="1" parent="1">
          <mxGeometry x="450" y="300" width="140" height="70" as="geometry" />
        </mxCell>
        <mxCell id="35qopiL8yK1qIyyW-kb4-30" value="&quot;include&quot;" style="endArrow=open;endSize=12;dashed=1;html=1;rounded=0;exitX=0.803;exitY=0.911;exitDx=0;exitDy=0;entryX=0.5;entryY=0;entryDx=0;entryDy=0;exitPerimeter=0;" edge="1" parent="1" source="35qopiL8yK1qIyyW-kb4-8" target="35qopiL8yK1qIyyW-kb4-29">
          <mxGeometry width="160" relative="1" as="geometry">
            <mxPoint x="351" y="300" as="sourcePoint" />
            <mxPoint x="310" y="350" as="targetPoint" />
          </mxGeometry>
        </mxCell>
        <mxCell id="35qopiL8yK1qIyyW-kb4-31" value="&lt;div&gt;19. Система электронной почты&lt;/div&gt;&lt;div&gt;&lt;br&gt;&lt;/div&gt;" style="html=1;whiteSpace=wrap;" vertex="1" parent="1">
          <mxGeometry x="-320" y="-170" width="250" height="130" as="geometry" />
        </mxCell>
        <mxCell id="35qopiL8yK1qIyyW-kb4-32" value="&quot;include&quot;" style="endArrow=open;endSize=12;dashed=1;html=1;rounded=0;exitX=0;exitY=1;exitDx=0;exitDy=0;" edge="1" parent="1" source="35qopiL8yK1qIyyW-kb4-33">
          <mxGeometry width="160" relative="1" as="geometry">
            <mxPoint x="381" y="290" as="sourcePoint" />
            <mxPoint x="330" y="530" as="targetPoint" />
            <Array as="points" />
          </mxGeometry>
        </mxCell>
        <mxCell id="35qopiL8yK1qIyyW-kb4-33" value="Отправить текст" style="ellipse;whiteSpace=wrap;html=1;" vertex="1" parent="1">
          <mxGeometry x="290" y="490" width="140" height="70" as="geometry" />
        </mxCell>
        <mxCell id="35qopiL8yK1qIyyW-kb4-35" value="Отправить файл с документом" style="ellipse;whiteSpace=wrap;html=1;" vertex="1" parent="1">
          <mxGeometry x="450" y="500" width="140" height="70" as="geometry" />
        </mxCell>
        <mxCell id="35qopiL8yK1qIyyW-kb4-36" value="&quot;include&quot;" style="endArrow=open;endSize=12;dashed=1;html=1;rounded=0;exitX=0;exitY=1;exitDx=0;exitDy=0;entryX=0.5;entryY=0;entryDx=0;entryDy=0;" edge="1" parent="1" source="35qopiL8yK1qIyyW-kb4-4" target="35qopiL8yK1qIyyW-kb4-33">
          <mxGeometry width="160" relative="1" as="geometry">
            <mxPoint x="381" y="290" as="sourcePoint" />
            <mxPoint x="330" y="330" as="targetPoint" />
          </mxGeometry>
        </mxCell>
        <mxCell id="35qopiL8yK1qIyyW-kb4-37" value="&quot;include&quot;" style="endArrow=open;endSize=12;dashed=1;html=1;rounded=0;exitX=1;exitY=1;exitDx=0;exitDy=0;entryX=0.5;entryY=0;entryDx=0;entryDy=0;" edge="1" parent="1" source="35qopiL8yK1qIyyW-kb4-4" target="35qopiL8yK1qIyyW-kb4-35">
          <mxGeometry width="160" relative="1" as="geometry">
            <mxPoint x="375" y="490" as="sourcePoint" />
            <mxPoint x="340" y="530" as="targetPoint" />
          </mxGeometry>
        </mxCell>
        <mxCell id="35qopiL8yK1qIyyW-kb4-38" value="" style="endArrow=none;html=1;rounded=0;entryX=0.013;entryY=0.4;entryDx=0;entryDy=0;entryPerimeter=0;" edge="1" parent="1" target="35qopiL8yK1qIyyW-kb4-3">
          <mxGeometry width="50" height="50" relative="1" as="geometry">
            <mxPoint x="120" y="400" as="sourcePoint" />
            <mxPoint x="380" y="400" as="targetPoint" />
          </mxGeometry>
        </mxCell>
        <mxCell id="35qopiL8yK1qIyyW-kb4-39" value="&quot;include&quot;" style="endArrow=open;endSize=12;dashed=1;html=1;rounded=0;exitX=0.436;exitY=1.022;exitDx=0;exitDy=0;entryX=0.5;entryY=0;entryDx=0;entryDy=0;exitPerimeter=0;" edge="1" parent="1" source="35qopiL8yK1qIyyW-kb4-3" target="35qopiL8yK1qIyyW-kb4-40">
          <mxGeometry width="160" relative="1" as="geometry">
            <mxPoint x="401" y="470" as="sourcePoint" />
            <mxPoint x="138" y="701" as="targetPoint" />
          </mxGeometry>
        </mxCell>
        <mxCell id="35qopiL8yK1qIyyW-kb4-40" value="Просмотр&amp;nbsp;" style="ellipse;whiteSpace=wrap;html=1;" vertex="1" parent="1">
          <mxGeometry x="180" y="690" width="140" height="70" as="geometry" />
        </mxCell>
        <mxCell id="35qopiL8yK1qIyyW-kb4-42" value="" style="endArrow=none;html=1;rounded=0;entryX=1;entryY=0.5;entryDx=0;entryDy=0;" edge="1" parent="1" target="35qopiL8yK1qIyyW-kb4-7">
          <mxGeometry width="50" height="50" relative="1" as="geometry">
            <mxPoint x="70" y="320" as="sourcePoint" />
            <mxPoint x="320" y="410" as="targetPoint" />
          </mxGeometry>
        </mxCell>
        <mxCell id="35qopiL8yK1qIyyW-kb4-43" value="&quot;include&quot;" style="endArrow=open;endSize=12;dashed=1;html=1;rounded=0;exitX=0;exitY=1;exitDx=0;exitDy=0;entryX=0.556;entryY=0.007;entryDx=0;entryDy=0;entryPerimeter=0;" edge="1" parent="1" source="35qopiL8yK1qIyyW-kb4-7" target="35qopiL8yK1qIyyW-kb4-44">
          <mxGeometry width="160" relative="1" as="geometry">
            <mxPoint x="391" y="270" as="sourcePoint" />
            <mxPoint x="-190" y="330" as="targetPoint" />
          </mxGeometry>
        </mxCell>
        <mxCell id="35qopiL8yK1qIyyW-kb4-44" value="Проверка и анализ спама" style="ellipse;whiteSpace=wrap;html=1;" vertex="1" parent="1">
          <mxGeometry x="-265" y="280" width="140" height="70" as="geometry" />
        </mxCell>
        <mxCell id="35qopiL8yK1qIyyW-kb4-45" value="Уведомление" style="ellipse;whiteSpace=wrap;html=1;" vertex="1" parent="1">
          <mxGeometry x="-100" y="280" width="140" height="70" as="geometry" />
        </mxCell>
        <mxCell id="35qopiL8yK1qIyyW-kb4-46" value="&quot;extend&quot;" style="endArrow=open;endSize=12;dashed=1;html=1;rounded=0;exitX=0.5;exitY=0;exitDx=0;exitDy=0;entryX=1;entryY=1;entryDx=0;entryDy=0;" edge="1" parent="1" source="35qopiL8yK1qIyyW-kb4-45" target="35qopiL8yK1qIyyW-kb4-7">
          <mxGeometry width="160" relative="1" as="geometry">
            <mxPoint x="-139" y="290" as="sourcePoint" />
            <mxPoint x="-177" y="340" as="targetPoint" />
          </mxGeometry>
        </mxCell>
        <mxCell id="35qopiL8yK1qIyyW-kb4-47" value="" style="endArrow=none;html=1;rounded=0;exitX=0.5;exitY=0;exitDx=0;exitDy=0;" edge="1" parent="1" source="35qopiL8yK1qIyyW-kb4-9">
          <mxGeometry width="50" height="50" relative="1" as="geometry">
            <mxPoint x="270" y="460" as="sourcePoint" />
            <mxPoint x="60" y="360" as="targetPoint" />
          </mxGeometry>
        </mxCell>
        <mxCell id="35qopiL8yK1qIyyW-kb4-48" value="Удалить контакт" style="ellipse;whiteSpace=wrap;html=1;" vertex="1" parent="1">
          <mxGeometry x="-370" y="480" width="140" height="70" as="geometry" />
        </mxCell>
        <mxCell id="35qopiL8yK1qIyyW-kb4-50" value="&quot;include&quot;" style="endArrow=open;endSize=12;dashed=1;html=1;rounded=0;entryX=0.5;entryY=0;entryDx=0;entryDy=0;" edge="1" parent="1" source="35qopiL8yK1qIyyW-kb4-9" target="35qopiL8yK1qIyyW-kb4-48">
          <mxGeometry width="160" relative="1" as="geometry">
            <mxPoint x="-149" y="240" as="sourcePoint" />
            <mxPoint x="-177" y="290" as="targetPoint" />
          </mxGeometry>
        </mxCell>
        <mxCell id="35qopiL8yK1qIyyW-kb4-51" value="Редактирование контакта" style="ellipse;whiteSpace=wrap;html=1;" vertex="1" parent="1">
          <mxGeometry x="-320" y="550" width="140" height="70" as="geometry" />
        </mxCell>
        <mxCell id="35qopiL8yK1qIyyW-kb4-52" value="&quot;include&quot;" style="endArrow=open;endSize=12;dashed=1;html=1;rounded=0;exitX=0;exitY=1;exitDx=0;exitDy=0;" edge="1" parent="1" source="35qopiL8yK1qIyyW-kb4-9" target="35qopiL8yK1qIyyW-kb4-51">
          <mxGeometry x="-0.4754" y="9" width="160" relative="1" as="geometry">
            <mxPoint x="-159" y="520" as="sourcePoint" />
            <mxPoint x="-260" y="560" as="targetPoint" />
            <mxPoint as="offset" />
          </mxGeometry>
        </mxCell>
        <mxCell id="35qopiL8yK1qIyyW-kb4-53" value="Добавить контакт" style="ellipse;whiteSpace=wrap;html=1;" vertex="1" parent="1">
          <mxGeometry x="-220" y="630" width="140" height="70" as="geometry" />
        </mxCell>
        <mxCell id="35qopiL8yK1qIyyW-kb4-54" value="&quot;include&quot;" style="endArrow=open;endSize=12;dashed=1;html=1;rounded=0;exitX=0.5;exitY=1;exitDx=0;exitDy=0;entryX=0.312;entryY=-0.005;entryDx=0;entryDy=0;entryPerimeter=0;" edge="1" parent="1" source="35qopiL8yK1qIyyW-kb4-9" target="35qopiL8yK1qIyyW-kb4-53">
          <mxGeometry x="-0.4754" y="9" width="160" relative="1" as="geometry">
            <mxPoint x="-159" y="520" as="sourcePoint" />
            <mxPoint x="-192" y="581" as="targetPoint" />
            <mxPoint as="offset" />
          </mxGeometry>
        </mxCell>
        <mxCell id="35qopiL8yK1qIyyW-kb4-56" value="Use Case" style="ellipse;whiteSpace=wrap;html=1;" vertex="1" parent="1">
          <mxGeometry x="170" y="410" width="140" height="70" as="geometry" />
        </mxCell>
        <mxCell id="35qopiL8yK1qIyyW-kb4-57" value="Экспорт контакта" style="ellipse;whiteSpace=wrap;html=1;" vertex="1" parent="1">
          <mxGeometry x="-80" y="570" width="140" height="70" as="geometry" />
        </mxCell>
        <mxCell id="35qopiL8yK1qIyyW-kb4-58" value="&quot;extend&quot;" style="endArrow=open;endSize=12;dashed=1;html=1;rounded=0;exitX=0.5;exitY=0;exitDx=0;exitDy=0;entryX=0.754;entryY=0.963;entryDx=0;entryDy=0;entryPerimeter=0;" edge="1" parent="1" source="35qopiL8yK1qIyyW-kb4-57" target="35qopiL8yK1qIyyW-kb4-9">
          <mxGeometry width="160" relative="1" as="geometry">
            <mxPoint x="-20" y="290" as="sourcePoint" />
            <mxPoint x="-51" y="240" as="targetPoint" />
          </mxGeometry>
        </mxCell>
        <mxCell id="35qopiL8yK1qIyyW-kb4-59" value="Импорт&amp;nbsp; контакта" style="ellipse;whiteSpace=wrap;html=1;" vertex="1" parent="1">
          <mxGeometry y="490" width="140" height="70" as="geometry" />
        </mxCell>
        <mxCell id="35qopiL8yK1qIyyW-kb4-60" value="&quot;extend&quot;" style="endArrow=open;endSize=12;dashed=1;html=1;rounded=0;entryX=0.977;entryY=0.386;entryDx=0;entryDy=0;entryPerimeter=0;exitX=0.256;exitY=0.052;exitDx=0;exitDy=0;exitPerimeter=0;" edge="1" parent="1" source="35qopiL8yK1qIyyW-kb4-59" target="35qopiL8yK1qIyyW-kb4-9">
          <mxGeometry width="160" relative="1" as="geometry">
            <mxPoint x="60" y="470" as="sourcePoint" />
            <mxPoint x="-74" y="527" as="targetPoint" />
          </mxGeometry>
        </mxCell>
      </root>
    </mxGraphModel>
  </diagram>
</mxfile>
